<svg viewBox="0 0 100 100" xmlns="http://www.w3.org/2000/svg">
  <linearGradient id="night" gradientTransform="rotate(90)">
    <stop offset="0" stop-color="#0d0d0d"/>
    <stop offset="1" stop-color="#0a0c4d"/>
  </linearGradient>
  <linearGradient id="electric" gradientTransform="rotate(90)">
    <stop offset="0" stop-color="#517ef5"/>
    <stop offset="1" stop-color="#5dd6f5"/>
  </linearGradient>
  <rect x="0" y="0" width="100%" height="100%" fill="#fff"/>
  <!-- HACK -->
  <polygon points="45,40 38,92 58,92 52,40" fill="url(#night)"/>
  <g transform="scale(0.19) translate(0, 8)">
    <path fill="url(#night)" d="
      M192.8,169.6
      c6.4,3.2,22.4,6.4,64,6.4
      s57.6-4.8,64-6.4
      V96
      c0-35.2-28.8-64-64-64
      s-64,28.8-64,64
      V169.6 
      z"></path> 
    <path fill="url(#electric)" d="
      M384.8,424
      c0-1.6-32-128-32-248
      v-16
      V96
      c0-52.8-43.2-96-96-96
      s-96,43.2-96,96
      v64
      v16 
      c0,120 -30.4,248 -32,248
      l-3.2,16
      l30.4,8
      l3.2-16
      c1.6-4.8,28.8-115.2,32-230.4
      c8,1.6,16,3.2,24,3.2
      c-1.6,153.6-30.4,281.6-32,283.2 
      l-3.2,16
      l30.4,6.4
      l3.2-16
      c0-1.6,30.4-132.8,32-288
      c3.2,0,4.8,0,8,0
      c3.2,0,4.8,0,8,0
      c1.6,156.8,32,286.4,32,288
      l3.2,16
      l32-6.4 
      l-3.2-16
      c0-1.6-30.4-129.6-32-283.2
      c8-1.6,17.6-1.6,24-3.2
      c3.2,115.2,30.4,225.6,32,230.4
      l3.2,16
      l30.4-8
      L384.8,424
      z 
      M192.8,169.6 
      V160
      V96
      c0-35.2,28.8-64,64-64
      s64,28.8,64,64
      v64
      v9.6
      c-6.4,3.2-22.4,6.4-64,6.4
      S199.2,171.2,192.8,169.6
      z"></path>
  </g>
  <!-- this is super hacky, need to fix it before it gets noticed -->
  <rect x="35" y="32.9" width="10" height="50" fill="#fff" stroke="#000" stroke-width="0" transform="rotate(10)"/>
  <rect x="50" y="49.6" width="10" height="50" fill="#fff" stroke="#000" stroke-width="0" transform="rotate(-10)"/>
</svg>
